<?xml version="1.0" encoding="UTF-8" standalone="no"?>
<svg
   width="429"
   height="86.79929577464789"
   viewBox="0 0 410.22222222222223 83"
   class="looka-1j8o68f"
   version="1.1"
   id="svg14"
   sodipodi:docname="logo.svg"
   xmlns:inkscape="http://www.inkscape.org/namespaces/inkscape"
   xmlns:sodipodi="http://sodipodi.sourceforge.net/DTD/sodipodi-0.dtd"
   xmlns="http://www.w3.org/2000/svg"
   xmlns:svg="http://www.w3.org/2000/svg">
  <sodipodi:namedview
     id="namedview16"
     pagecolor="#ffffff"
     bordercolor="#000000"
     borderopacity="0.25"
     inkscape:showpageshadow="2"
     inkscape:pageopacity="0.0"
     inkscape:pagecheckerboard="0"
     inkscape:deskcolor="#d1d1d1" />
  <defs
     id="SvgjsDefs5339" />
  <g
     id="SvgjsG5340"
     featurekey="symbolContainer"
     transform="matrix(1,0,0,1,0,0)"
     fill="#2563eb">
    <rect
       width="118"
       height="83"
       rx="10"
       ry="10"
       id="rect3" />
  </g>
  <g
     id="SvgjsG5341"
     featurekey="uHI19F-0"
     transform="matrix(0.9731342200154286,0,0,0.9731342200154286,10.23217417590501,-7.2362354529928545)"
     fill="#ffffff">
    <g
       transform="translate(0,-952.36218)"
       id="g8">
      <path
         d="m 32.065299,980.35063 c 1.50182,0.79783 2.77767,2.42636 3.84315,3.66079 l -1.5935,1.59574 c -0.36828,0.37677 -0.36093,1.05517 0.0154,1.42385 0.37635,0.36867 1.05381,0.36112 1.42186,-0.0158 l 1.46852,-1.47058 c 1.01391,1.20307 2.05599,2.45767 3.28074,3.87982 l -2.18716,2.19022 c -0.36827,0.37677 -0.36092,1.05517 0.0154,1.42385 0.37635,0.36868 1.0538,0.36113 1.42186,-0.0158 l 2.09342,-2.09636 c 1.05247,1.18802 1.96821,2.19176 2.93704,3.22276 l -2.46836,2.47182 c -0.36828,0.37676 -0.36093,1.05516 0.0154,1.42381 0.37636,0.3687 1.05381,0.36121 1.42186,-0.016 l 2.46837,-2.4718 c 0.85257,0.85218 1.71057,1.70625 2.62459,2.5344 l -2.53086,2.53445 c -0.36827,0.3768 -0.36092,1.0552 0.0154,1.4238 0.37635,0.3687 1.05381,0.3612 1.42186,-0.016 l 2.59334,-2.59695 c 0.93659,0.79565 1.91079,1.55075 2.9058,2.28415 -0.64928,1.0604 -1.18358,2.2766 -1.74973,3.4104 -0.23722,0.4751 -0.006,1.1079 0.46868,1.3455 0.47443,0.2375 1.10632,0.037 1.34354,-0.4381 l 1.5935,-3.1602 c 0.97434,0.654 1.97403,1.2825 2.99953,1.8461 l -0.84362,3.3792 c -0.17328,0.5238 0.17848,1.1584 0.71409,1.2881 0.53561,0.1298 1.1381,-0.2735 1.22311,-0.8188 l 0.71864,-2.9098 c 1.08168,0.514 2.17807,0.9622 3.31198,1.3454 l 0,3.3479 c -0.007,0.529 0.47156,1.0155 0.99985,1.0155 0.52828,0 1.00731,-0.4865 0.99984,-1.0155 l 0,-2.7847 c 2.15238,0.5301 4.03691,0.7318 5.99906,0.8448 l 0,3.9424 c -10.79095,-0.1414 -17.99418,-2.5921 -24.12123,-7.6658 -6.0592,-5.01756 -11.08975,-12.76324 -17.21606,-23.52928 0.83646,-0.25324 1.67034,-0.55712 2.37471,-0.81363 z m -17.153581,1.1264 c 5.15517,1.13855 9.18228,1.02613 12.77926,0.21902 6.27256,11.05572 11.46519,19.14735 17.96594,24.53055 6.48879,5.3732 14.266001,7.9884 25.371041,8.1351 l 0,1.7834 c -22.93817,1.1761 -43.15038,0.4698 -60.99047,-0.7822 1.94878,-9.8429 3.86969,-27.44087 4.874229,-33.88587 z m 9.123581,7.8535 c -4.393901,0 -7.99875,3.6099 -7.99875,8.00995 0,4.40012 3.604849,8.01002 7.99875,8.01002 4.3939,0 7.99875,-3.6099 7.99875,-8.01002 0,-4.40005 -3.60485,-8.00995 -7.99875,-8.00995 z m 0,4.00498 c 2.23248,0 3.99938,1.76936 3.99938,4.00497 0,2.23558 -1.7669,4.00502 -3.99938,4.00502 -2.232481,0 -3.999381,-1.76944 -3.999381,-4.00502 0,-2.23561 1.7669,-4.00497 3.999381,-4.00497 z m 48.992349,15.23769 c 5.821931,0.5081 9.988494,1.3152 12.623034,2.8786 0.69128,0.4102 1.29974,0.8782 1.81222,1.408 -3.627741,1.341 -8.387923,2.3707 -14.435254,3.0663 z m 15.622564,5.9762 c 0.821939,1.5432 1.24597,3.5109 1.3123,6.1326 -0.634461,0.3087 -1.865031,0.7513 -3.718171,1.1577 -6.123793,1.1935 -12.486073,2.167 -18.340893,2.5344 l -0.718639,-5.851 c 9.337109,-0.6783 16.391163,-1.9991 21.465402,-3.9737 z m -78.612723,2.8786 c 23.5362,1.6195 41.62196,2.0419 55.14764,1.2202 l 0.71863,5.7259 -37.7441,0 c -7.6494,0 -13.30116,-0.9328 -18.12217,-1.8773 z"
         style="text-indent:0;text-transform:none;direction:ltr;block-progression:tb;baseline-shift:baseline;color:;enable-background:accumulate;"
         fill="#ffffff"
         fill-opacity="1"
         stroke="none"
         marker="none"
         visibility="visible"
         display="inline"
         overflow="visible"
         id="path6" />
    </g>
  </g>
  <g
     id="SvgjsG5342"
     featurekey="8FbbNb-0"
     transform="matrix(4.05938265974042,0,0,4.05938265974042,135.72674884632184,-25.90666501397262)"
     fill="#2563eb">
    <path
       d="M4.56 10.28 c0.72 0 1.3633 0.13338 1.93 0.40004 s1.0033 0.65332 1.31 1.16 l-1.4 1.06 c-0.53334 -0.62666 -1.18 -0.94 -1.94 -0.94 c-0.45334 0 -0.83 0.1 -1.13 0.3 s-0.45 0.45334 -0.45 0.76 c0 0.66666 0.62 1.12 1.86 1.36 c1.2133 0.22666 2.07 0.56 2.57 1 s0.75 1.0667 0.75 1.88 c0 0.92 -0.35 1.6433 -1.05 2.17 s-1.6367 0.79666 -2.81 0.81 c-0.88 0 -1.6033 -0.13666 -2.17 -0.41 s-1.0567 -0.69668 -1.47 -1.27 l1.36 -1.12 c0.72 0.74666 1.4867 1.12 2.3 1.12 c0.53334 0 0.98668 -0.10666 1.36 -0.32 s0.56 -0.50668 0.56 -0.88002 c0 -0.65334 -0.6 -1.1067 -1.8 -1.36 c-1.3333 -0.26666 -2.23 -0.62332 -2.69 -1.07 s-0.69 -1.0233 -0.69 -1.73 c0 -0.88 0.34 -1.5833 1.02 -2.11 s1.54 -0.79666 2.58 -0.81 z M12.74 7.859999999999999 l-0.000019531 2.66 l2.58 0 l0 1.56 l-2.58 0 l0 4.56 c0 0.61334 0.08666 1.0867 0.26 1.42 s0.54 0.5 1.1 0.5 c0.53334 0 0.96 -0.09334 1.28 -0.28 l0 1.64 c-0.34666 0.18666 -0.89332 0.29332 -1.64 0.31998 c-0.72 0 -1.2767 -0.11 -1.67 -0.33 s-0.68 -0.52666 -0.86 -0.92 s-0.27 -1.01 -0.27 -1.85 l0 -5.06 l-2.08 0 l0 -1.56 l2.08 0 l0 -2.66 l1.8 0 z M21.98 10.28 c1.4533 0 2.5834 0.45664 3.39 1.37 s1.2167 2.17 1.23 3.77 l0 0.5 l-7.6 0 c0 0.77334 0.31 1.4233 0.93 1.95 s1.3767 0.79666 2.27 0.81 c0.98666 0 1.8533 -0.47334 2.6 -1.42 l1.36 1.04 c-1.0133 1.2933 -2.4134 1.94 -4.2 1.94 c-1.4533 0 -2.6234 -0.46334 -3.51 -1.39 s-1.3433 -2.1234 -1.37 -3.59 c0 -1.4133 0.45666 -2.59 1.37 -3.53 s2.09 -1.4233 3.53 -1.45 z M24.68 14.48 c-0.02666 -0.89334 -0.28 -1.5767 -0.76 -2.05 s-1.14 -0.71 -1.98 -0.71 c-0.56 0 -1.0633 0.13666 -1.51 0.41 s-0.79666 0.62668 -1.05 1.06 s-0.38 0.86334 -0.38 1.29 l5.68 0 z M33.92 10.28 c1.4 0 2.5434 0.45998 3.43 1.38 s1.3433 2.12 1.37 3.6 c0 1.48 -0.45334 2.6766 -1.36 3.59 s-2.06 1.3767 -3.46 1.39 c-0.69334 0 -1.34 -0.14666 -1.94 -0.44 s-1.0533 -0.68 -1.36 -1.16 l-0.04 0 l0 7 l-1.8 0 l0 -15.12 l1.8 0 l0 1.36 l0.04 0 c0.36 -0.50666 0.83334 -0.9 1.42 -1.18 s1.22 -0.42 1.9 -0.42 z M30.560000000000002 15.26 c0 0.98666 0.28998 1.7833 0.86998 2.39 s1.33 0.91 2.25 0.91 c0.96 0 1.7167 -0.30334 2.27 -0.91 s0.83668 -1.4033 0.85002 -2.39 c0 -0.98666 -0.28334 -1.78 -0.85 -2.38 s-1.33 -0.90666 -2.29 -0.92 c-0.94666 0 -1.7 0.31 -2.26 0.93 s-0.84 1.41 -0.84 2.37 z M48.34 10.52 l0 5.68 c0 0.74666 0.19666 1.3267 0.59 1.74 s0.91668 0.62 1.57 0.62 c0.84 0 1.49 -0.27666 1.95 -0.83 s0.69 -1.3033 0.69 -2.25 l0 -4.96 l1.8 0 l0 9.48 l-1.8 0 l0 -1.46 l-0.04 0 c-0.25334 0.53334 -0.66668 0.95 -1.24 1.25 s-1.2 0.45 -1.88 0.45 c-1.0533 0 -1.89 -0.32666 -2.51 -0.98 s-0.93 -1.5067 -0.93 -2.56 l0 -6.18 l1.8 0 z M62.82000000000001 10.28 c1.4 0 2.5434 0.45998 3.43 1.38 s1.3433 2.12 1.37 3.6 c0 1.48 -0.45334 2.6766 -1.36 3.59 s-2.06 1.3767 -3.46 1.39 c-0.69334 0 -1.34 -0.14666 -1.94 -0.44 s-1.0533 -0.68 -1.36 -1.16 l-0.04 0 l0 7 l-1.8 0 l0 -15.12 l1.8 0 l0 1.36 l0.04 0 c0.36 -0.50666 0.83334 -0.9 1.42 -1.18 s1.22 -0.42 1.9 -0.42 z M59.46000000000001 15.26 c0 0.98666 0.28998 1.7833 0.86998 2.39 s1.33 0.91 2.25 0.91 c0.96 0 1.7167 -0.30334 2.27 -0.91 s0.83668 -1.4033 0.85002 -2.39 c0 -0.98666 -0.28334 -1.78 -0.85 -2.38 s-1.33 -0.90666 -2.29 -0.92 c-0.94666 0 -1.7 0.31 -2.26 0.93 s-0.84 1.41 -0.84 2.37 z"
       id="path11" />
  </g>
</svg>
